<?xml version="1.0" encoding="utf-8"?>
<svg version="1.1" xmlns="http://www.w3.org/2000/svg" xmlns:xlink="http://www.w3.org/1999/xlink" x="0px" y="0px"
	 viewBox="0 0 504 144" style="enable-background:new 0 0 504 144;" xml:space="preserve">
<style type="text/css">
	.st0{fill:#010101;}
	.st1{fill:#205296;}
	.st2{fill:#356DB6;}
	.st3{fill:#4AA2DA;}
	.st4{fill:#90D8F5;}
	.st5{fill:#1F5296;}
</style>
<g>
	<path class="st0" d="M42.9,116.9c-6.3,0-10.8-1.5-14.8-5.5l4.2-4.2c3,3,6.4,4,10.7,4c5.4,0,8.6-2.3,8.6-6.4c0-1.8-0.5-3.3-1.6-4.3
		s-2.1-1.4-4.6-1.8L40.5,98c-3.4-0.5-6.1-1.6-7.9-3.3c-2-1.9-3-4.6-3-8c0-7.3,5.3-12.2,13.9-12.2c5.5,0,9.4,1.4,12.9,4.7l-4,4
		c-2.6-2.5-5.6-3.2-9.1-3.2c-4.9,0-7.6,2.8-7.6,6.5c0,1.5,0.5,2.9,1.6,3.9c1.1,0.9,2.8,1.6,4.7,1.9l4.7,0.7c3.9,0.6,6,1.5,7.8,3.1
		c2.3,2,3.4,5,3.4,8.5C57.9,112.3,51.6,116.9,42.9,116.9z"/>
	<path class="st0" d="M74.5,116.6c-5.6,0-8.1-4-8.1-8.3V92H63v-4.6h3.4v-9h6v9h5.7V92h-5.7v16c0,2.2,1.1,3.5,3.3,3.5h2.5v5.1H74.5z"
		/>
	<path class="st0" d="M101.5,116.6v-2.7c-2.2,2.2-4.2,3-7.9,3c-3.7,0-6.1-0.9-8-2.7c-1.5-1.6-2.3-3.9-2.3-6.4c0-5,3.5-8.5,10.2-8.5
		h7.8v-2.1c0-3.7-1.9-5.6-6.5-5.6c-3.3,0-4.9,0.8-6.5,2.9l-3.9-3.7c2.8-3.3,5.7-4.3,10.7-4.3c8.1,0,12.2,3.5,12.2,10.2v19.8
		L101.5,116.6L101.5,116.6z M101.4,103.4h-7c-3.5,0-5.3,1.6-5.3,4.3c0,2.7,1.7,4.2,5.4,4.2c2.3,0,4-0.2,5.6-1.7
		c0.9-0.9,1.3-2.3,1.3-4.4V103.4z"/>
	<path class="st0" d="M128.2,116.9c-6.7,0-13.2-4.1-13.2-15.2s6.6-15.2,13.2-15.2c4.1,0,7,1.2,9.8,4.2l-4.1,4
		c-1.9-2-3.3-2.8-5.7-2.8c-2.3,0-4.2,0.9-5.5,2.6c-1.3,1.6-1.8,3.7-1.8,7.2s0.5,5.6,1.8,7.3c1.3,1.7,3.2,2.6,5.5,2.6
		s3.8-0.8,5.7-2.8l4.1,3.9C135.2,115.7,132.3,116.9,128.2,116.9z"/>
	<path class="st0" d="M163.6,116.6l-8.3-13.7l-4.4,5v8.7h-6V74.9h6v25.7l11.5-13.7h7.3l-10.3,11.6l11.6,18L163.6,116.6L163.6,116.6z
		"/>
	<path class="st1" d="M177.1,116.6V74.9h27.5v7.3h-19.3V92h16.4v7.3h-16.4v10.1h19.3v7.3h-27.5V116.6z"/>
	<path class="st1" d="M228.7,116.6l-5.6-9.1l-5.6,9.1h-9.1l10.5-15.6l-10.1-14.9h9.1l5.2,8.7l5.2-8.7h9.1L227.3,101l10.5,15.6H228.7
		z"/>
	<path class="st1" d="M253.7,116.9c-6.1,0-13.6-3.3-13.6-15.6s7.6-15.6,13.6-15.6c4.2,0,7.4,1.3,10.1,4.1l-5.2,5.2
		c-1.6-1.7-2.9-2.4-4.9-2.4c-1.8,0-3.2,0.6-4.3,2c-1.2,1.5-1.7,3.5-1.7,6.7s0.5,5.3,1.7,6.8c1.1,1.3,2.5,2,4.3,2
		c2,0,3.3-0.7,4.9-2.4l5.2,5.1C261.1,115.6,257.9,116.9,253.7,116.9z"/>
	<path class="st1" d="M287.2,116.6V97.9c0-4-2.6-5.4-5-5.4s-4.9,1.4-4.9,5.4v18.6h-7.6V74.9h7.6v14c2-2.1,4.6-3.2,7.3-3.2
		c6.7,0,10.2,4.7,10.2,11.1v19.7L287.2,116.6L287.2,116.6z"/>
	<path class="st1" d="M318.6,116.6V114c-2,2-4,2.9-7.5,2.9s-6-0.9-7.8-2.7c-1.6-1.7-2.5-4.2-2.5-6.8c0-4.9,3.3-8.8,10.4-8.8h7.2
		v-1.5c0-3.3-1.6-4.8-5.7-4.8c-2.9,0-4.3,0.7-5.9,2.5l-4.9-4.7c3-3.3,5.9-4.2,11-4.2c8.5,0,13,3.6,13,10.8v20.1h-7.3V116.6z
		 M318.5,103.7h-6c-2.8,0-4.3,1.3-4.3,3.5c0,2.1,1.4,3.5,4.4,3.5c2.1,0,3.5-0.2,4.8-1.5c0.8-0.8,1.1-2,1.1-3.9V103.7z"/>
	<path class="st1" d="M352,116.6V98.1c0-4.2-2.6-5.6-5-5.6s-5.1,1.4-5.1,5.6v18.4h-7.6V86.1h7.4v2.8c2-2.1,4.8-3.2,7.6-3.2
		c3,0,5.5,1,7.2,2.7c2.5,2.5,3.1,5.3,3.1,8.7v19.5H352z"/>
	<path class="st1" d="M378.3,128.1c-4.7,0-7.9-0.9-11.1-4l4.7-4.8c1.7,1.6,3.4,2.3,6,2.3c4.6,0,6.1-3.2,6.1-6.3v-3.1
		c-2,2.2-4.3,3-7.3,3s-5.6-1-7.3-2.7c-2.9-2.9-3.1-6.8-3.1-12.1c0-5.3,0.2-9.2,3.1-12.1c1.7-1.7,4.3-2.7,7.3-2.7
		c3.2,0,5.3,0.9,7.4,3.2v-2.9h7.4v29.4C391.7,122.8,386.5,128.1,378.3,128.1z M379.1,92.6c-4.5,0-5,3.9-5,7.9s0.5,8,5,8s5-3.9,5-8
		S383.6,92.6,379.1,92.6z"/>
	<path class="st1" d="M406.2,103.7c0,3.9,2.4,6.8,6.7,6.8c3.3,0,5-0.9,6.9-2.9l4.6,4.5c-3.1,3.1-6.1,4.8-11.6,4.8
		c-7.2,0-14.1-3.3-14.1-15.6c0-10,5.4-15.6,13.3-15.6c8.5,0,13.3,6.2,13.3,14.6v3.4C425.3,103.7,406.2,103.7,406.2,103.7z
		 M417.1,95.2c-0.8-1.8-2.5-3.2-5.1-3.2s-4.3,1.3-5.1,3.2c-0.5,1.1-0.6,1.9-0.7,3.3h11.6C417.8,97.1,417.6,96.3,417.1,95.2z"/>
</g>
<rect x="426.3" y="49.9" class="st2" width="43.2" height="8.9"/>
<rect x="426.3" y="38.4" class="st3" width="43.2" height="8.9"/>
<path class="st4" d="M462.7,26.5h-29.5c-3.8,0-6.9,3.2-6.9,7.1v2.3h43.2v-2.3C469.5,29.7,466.5,26.5,462.7,26.5z"/>
<path class="st5" d="M426.3,61.3v2.3c0,3.9,3.1,7.1,6.9,7.1h18.5v9.4l9.1-9.4h2c3.8,0,6.9-3.2,6.9-7.1v-2.3H426.3z"/>
</svg>
